<svg xmlns="http://www.w3.org/2000/svg" height="24px" viewBox="0 -960 960 960" width="24px" fill="#FFFFFF"><path d="M689.21-34Q624-34 578-79.5T532-190q0-7 3-21L286-353q-20.21 14.87-44.01 22.94Q218.18-322 191-322q-66 0-111.5-46.12t-45.5-112Q34-546 79.5-592.5T191-639q28 0 52.72 9.03Q268.45-620.94 289-605l245-141q-1-6-1.5-12t-.5-11q0-65.83 46.08-111.92Q624.17-927 690-927q65 0 111 46.5T847-769q0 65-46.21 111T690-612q-28.91 0-55.45-10Q608-632 588-649L347-513q2 8.05 2.5 16.72.5 8.66.5 16.78 0 8.12-.5 16.96-.5 8.84-3.5 17.54l240 137q22-19 47.45-29.5Q658.91-348 690-348q65.42 0 111.21 46.08Q847-255.83 847-190q0 65.42-46.29 110.71Q754.41-34 689.21-34Zm-.65-126q12.99 0 22.72-9.09 9.72-9.09 9.72-22.52 0-13.44-9.49-21.92Q702.02-222 688-222q-12 0-21 9.2t-9 21.27q0 12.53 8.79 22.03 8.78 9.5 21.77 9.5Zm-497.6-288q13.59 0 23.31-9.1 9.73-9.11 9.73-22.57 0-14.31-9.79-23.82T191.3-513q-13.12 0-22.21 9.48-9.09 9.47-9.09 23.48 0 13.16 8.9 22.6 8.9 9.44 22.06 9.44Zm498.22-290q12.37 0 21.6-8.88 9.22-8.87 9.22-22 0-13.12-8.88-22.62-8.87-9.5-22-9.5-13.12 0-22.62 9.34-9.5 9.34-9.5 23.15 0 12.96 9.9 21.73 9.9 8.78 22.28 8.78ZM691-191ZM192-480Zm498-290Z"/></svg>
