<?xml version="1.0" encoding="UTF-8" standalone="no"?>
<svg
   height="128"
   width="128"
   version="1.1"
   id="svg24"
   sodipodi:docname="icon.svg"
   inkscape:version="1.1.2 (0a00cf5339, 2022-02-04)"
   xmlns:inkscape="http://www.inkscape.org/namespaces/inkscape"
   xmlns:sodipodi="http://sodipodi.sourceforge.net/DTD/sodipodi-0.dtd"
   xmlns="http://www.w3.org/2000/svg"
   xmlns:svg="http://www.w3.org/2000/svg">
  <defs
     id="defs28" />
  <sodipodi:namedview
     id="namedview26"
     pagecolor="#ffffff"
     bordercolor="#666666"
     borderopacity="1.0"
     inkscape:pageshadow="2"
     inkscape:pageopacity="0.0"
     inkscape:pagecheckerboard="0"
     showgrid="false"
     inkscape:zoom="3.2998027"
     inkscape:cx="57.730724"
     inkscape:cy="65.913031"
     inkscape:window-width="2560"
     inkscape:window-height="1408"
     inkscape:window-x="0"
     inkscape:window-y="0"
     inkscape:window-maximized="1"
     inkscape:current-layer="svg24" />
  <rect
     x="13.538496"
     y="13.538496"
     width="100.92301"
     height="100.92301"
     rx="11.394533"
     fill="#363d52"
     stroke="#212532"
     stroke-width="3.25558"
     id="rect2" />
  <g
     transform="matrix(0.08220342,0,0,0.08220342,21.939522,21.939522)"
     id="g22">
    <g
       fill="#ffffff"
       id="g14">
      <path
         d="m 105,673 v 33 q 407,354 814,0 v -33 z"
         id="path4" />
      <path
         fill="#478cbf"
         d="m 105,673 152,14 q 12,1 15,14 l 4,67 132,10 8,-61 q 2,-11 15,-15 h 162 q 13,4 15,15 l 8,61 132,-10 4,-67 q 3,-13 15,-14 L 919,673 V 427 q 30,-39 56,-81 -35,-59 -83,-108 -43,20 -82,47 -40,-37 -88,-64 7,-51 8,-102 -59,-28 -123,-42 -26,43 -46,89 -49,-7 -98,0 -20,-46 -46,-89 -64,14 -123,42 1,51 8,102 -48,27 -88,64 -39,-27 -82,-47 -48,49 -83,108 26,42 56,81 z m 0,33 v 39 c 0,276 813,276 813,0 v -39 l -134,12 -5,69 q -2,10 -14,13 l -162,11 q -12,0 -16,-11 L 577,735 H 447 l -10,65 q -4,11 -16,11 L 259,800 q -12,-3 -14,-13 l -5,-69 z"
         id="path6" />
      <path
         d="m 483,600 c 3,34 55,34 58,0 v -86 c -3,-34 -55,-34 -58,0 z"
         id="path8" />
      <circle
         cx="725"
         cy="526"
         r="90"
         id="circle10" />
      <circle
         cx="299"
         cy="526"
         r="90"
         id="circle12" />
    </g>
    <g
       fill="#414042"
       id="g20">
      <circle
         cx="307"
         cy="532"
         r="60"
         id="circle16" />
      <circle
         cx="717"
         cy="532"
         r="60"
         id="circle18" />
    </g>
  </g>
</svg>
